<svg xmlns="http://www.w3.org/2000/svg" viewBox="0 0 512 512" role="img" aria-label="Work Note">
  <defs>
    <linearGradient id="bg" x1="74" y1="48" x2="432" y2="470" gradientUnits="userSpaceOnUse">
      <stop offset="0" stop-color="#fbfaf6"/>
      <stop offset="0.56" stop-color="#eef4f7"/>
      <stop offset="1" stop-color="#dfe8ef"/>
    </linearGradient>
    <linearGradient id="paper" x1="176" y1="128" x2="410" y2="358" gradientUnits="userSpaceOnUse">
      <stop offset="0" stop-color="#fffef9"/>
      <stop offset="1" stop-color="#edf5fb"/>
    </linearGradient>
    <linearGradient id="red" x1="88" y1="116" x2="276" y2="190" gradientUnits="userSpaceOnUse">
      <stop offset="0" stop-color="#ff8377"/>
      <stop offset="1" stop-color="#e24f4c"/>
    </linearGradient>
    <filter id="shadow" x="-20%" y="-20%" width="140%" height="150%">
      <feDropShadow dx="0" dy="14" stdDeviation="16" flood-color="#26364d" flood-opacity="0.18"/>
      <feDropShadow dx="0" dy="2" stdDeviation="2" flood-color="#26364d" flood-opacity="0.18"/>
    </filter>
  </defs>

  <rect width="512" height="512" rx="116" fill="url(#bg)"/>
  <rect x="28" y="28" width="456" height="456" rx="94" fill="none" stroke="#ffffff" stroke-width="18" opacity="0.92"/>
  <rect x="44" y="44" width="424" height="424" rx="82" fill="none" stroke="#8f9aa6" stroke-width="6" opacity="0.35"/>

  <g filter="url(#shadow)">
    <g transform="translate(62 82)">
      <path d="M42 102h178c18 0 32 14 32 32v154H42c-18 0-32-14-32-32V134c0-18 14-32 32-32Z" fill="#ddebf6" stroke="#24364f" stroke-width="8"/>
      <path d="M36 68h176c18 0 32 14 32 32v34H4v-34c0-18 14-32 32-32Z" fill="url(#red)" stroke="#24364f" stroke-width="8"/>
      <g fill="none" stroke="#27354d" stroke-width="9" stroke-linecap="round">
        <path d="M58 76V38c0-16 23-16 23 0v38"/>
        <path d="M114 76V38c0-16 23-16 23 0v38"/>
        <path d="M170 76V38c0-16 23-16 23 0v38"/>
      </g>
      <g transform="translate(38 154)" stroke="#8ca1bd" stroke-width="5">
        <rect x="0" y="0" width="166" height="116" fill="#fffaf0"/>
        <path d="M0 39h166M0 78h166M42 0v116M84 0v116M126 0v116"/>
      </g>
      <path d="m87 208 22 25 43-57" fill="none" stroke="#7ea0cf" stroke-width="15" stroke-linecap="round" stroke-linejoin="round"/>
    </g>

    <g transform="translate(214 118)">
      <path d="M42 0h178c24 0 44 20 44 44v232c0 24-20 44-44 44H42c-24 0-44-20-44-44V44C-2 20 18 0 42 0Z" fill="#d7e7f3" stroke="#24364f" stroke-width="8"/>
      <path d="M24 18h170c24 0 44 20 44 44v222H24V18Z" fill="url(#paper)" stroke="#24364f" stroke-width="6"/>
      <g fill="none" stroke="#2d3a52" stroke-width="9" stroke-linecap="round">
        <path d="M12 56h42"/><path d="M12 92h42"/><path d="M12 128h42"/><path d="M12 164h42"/><path d="M12 200h42"/>
      </g>
      <g stroke="#9aa9ba" stroke-width="5" stroke-linecap="round">
        <path d="M78 92h118"/><path d="M78 124h118"/><path d="M78 156h118"/><path d="M78 188h118"/><path d="M78 220h92"/>
      </g>
      <path d="M96 36h62v52H96z" fill="#ffdd61" stroke="#bd8a00" stroke-width="4"/>
      <circle cx="152" cy="58" r="14" fill="#62b5df" stroke="#2a6385" stroke-width="4"/>
      <g transform="translate(164 128) rotate(36)">
        <rect x="0" y="0" width="34" height="150" rx="14" fill="#f6b53e" stroke="#24364f" stroke-width="6"/>
        <rect x="0" y="0" width="34" height="36" rx="10" fill="#f47d65" stroke="#24364f" stroke-width="6"/>
        <path d="M0 148h34l-17 34Z" fill="#fff1cc" stroke="#24364f" stroke-width="6"/>
      </g>
    </g>
  </g>

  <rect x="88" y="368" width="336" height="72" rx="30" fill="#fbf3e8" stroke="#c3b4a2" stroke-width="5" opacity="0.98"/>
  <text x="256" y="418" text-anchor="middle" font-family="Segoe UI, Arial, sans-serif" font-size="46" font-weight="900" fill="#5c4635" stroke="#ffffff" stroke-width="3" paint-order="stroke">Work Note</text>
</svg>
